<mxfile host="65bd71144e">
    <diagram id="GR_GxVHpgNyokB_BFp6y" name="Page-1">
        <mxGraphModel dx="597" dy="554" grid="1" gridSize="10" guides="1" tooltips="1" connect="1" arrows="1" fold="1" page="1" pageScale="1" pageWidth="1169" pageHeight="827" math="0" shadow="0">
            <root>
                <mxCell id="0"/>
                <mxCell id="1" parent="0"/>
                <mxCell id="7" value="Infrastructure&lt;br&gt;&amp;lt;&amp;lt;Data-Plane&amp;gt;&amp;gt;" style="rounded=0;whiteSpace=wrap;html=1;verticalAlign=bottom;spacingBottom=10;" parent="1" vertex="1">
                    <mxGeometry x="80" y="320" width="360" height="120" as="geometry"/>
                </mxCell>
                <mxCell id="4" value="provisions" style="edgeStyle=none;html=1;entryX=0.5;entryY=0;entryDx=0;entryDy=0;" parent="1" source="2" target="3" edge="1">
                    <mxGeometry x="0.4899" relative="1" as="geometry">
                        <Array as="points">
                            <mxPoint x="170" y="120"/>
                        </Array>
                        <mxPoint as="offset"/>
                    </mxGeometry>
                </mxCell>
                <mxCell id="9" value="uses" style="edgeStyle=none;html=1;entryX=0.5;entryY=0;entryDx=0;entryDy=0;" parent="1" source="2" target="6" edge="1">
                    <mxGeometry relative="1" as="geometry">
                        <Array as="points">
                            <mxPoint x="380" y="120"/>
                        </Array>
                    </mxGeometry>
                </mxCell>
                <mxCell id="2" value="User" style="shape=umlActor;verticalLabelPosition=bottom;verticalAlign=top;html=1;outlineConnect=0;" parent="1" vertex="1">
                    <mxGeometry x="245" y="70" width="30" height="60" as="geometry"/>
                </mxCell>
                <mxCell id="8" value="provisions" style="edgeStyle=none;html=1;entryX=0;entryY=0.5;entryDx=0;entryDy=0;exitX=0.5;exitY=1;exitDx=0;exitDy=0;" parent="1" source="10" target="6" edge="1">
                    <mxGeometry relative="1" as="geometry">
                        <Array as="points">
                            <mxPoint x="170" y="375"/>
                        </Array>
                    </mxGeometry>
                </mxCell>
                <mxCell id="11" style="edgeStyle=none;html=1;entryX=0.5;entryY=0;entryDx=0;entryDy=0;" edge="1" parent="1" source="3" target="10">
                    <mxGeometry relative="1" as="geometry"/>
                </mxCell>
                <mxCell id="3" value="SECA API&lt;br&gt;&amp;lt;&amp;lt;Control-Plane&amp;gt;&amp;gt;" style="rounded=0;whiteSpace=wrap;html=1;" parent="1" vertex="1">
                    <mxGeometry x="80" y="200" width="180" height="40" as="geometry"/>
                </mxCell>
                <mxCell id="6" value="Resource" style="ellipse;whiteSpace=wrap;html=1;" parent="1" vertex="1">
                    <mxGeometry x="340" y="340" width="80" height="70" as="geometry"/>
                </mxCell>
                <mxCell id="10" value="Cloud Service Provider API&lt;br&gt;&amp;lt;&amp;lt;Control-Plane&amp;gt;&amp;gt;" style="rounded=0;whiteSpace=wrap;html=1;" vertex="1" parent="1">
                    <mxGeometry x="80" y="280" width="180" height="40" as="geometry"/>
                </mxCell>
            </root>
        </mxGraphModel>
    </diagram>
</mxfile>